<?xml version="1.0" standalone="no"?>
<!DOCTYPE svg PUBLIC "-//W3C//DTD SVG 20010904//EN"
 "http://www.w3.org/TR/2001/REC-SVG-20010904/DTD/svg10.dtd">
<svg version="1.0" xmlns="http://www.w3.org/2000/svg"
 width="1080.000000pt" height="1080.000000pt" viewBox="0 0 1080.000000 1080.000000"
 preserveAspectRatio="xMidYMid meet">
<metadata>
Created by potrace 1.14, written by Peter Selinger 2001-2017
</metadata>
<g transform="translate(0.000000,1080.000000) scale(0.100000,-0.100000)"
fill="#000000" stroke="none">
<path d="M5630 6508 l0 -2538 33 0 33 0 0 2535 c0 1394 -3 2535 -6 2536 -3 0
-17 2 -32 3 l-28 2 0 -2538z"/>
<path d="M3520 7533 c-128 -47 -225 -136 -284 -258 -21 -44 -40 -88 -42 -100
-2 -11 -6 -31 -9 -45 -19 -86 -23 -124 -23 -201 0 -242 109 -455 314 -611 l52
-39 -29 -72 c-15 -40 -28 -78 -29 -85 0 -30 32 -46 99 -48 36 -1 69 -2 73 -3
14 -2 60 -91 72 -138 7 -27 12 -68 11 -93 -2 -54 -24 -161 -36 -176 -5 -6 -10
-20 -12 -31 -2 -12 -8 -27 -14 -35 -6 -7 -12 -16 -12 -20 -3 -17 -17 -49 -82
-183 -65 -136 -105 -237 -115 -292 -3 -15 -7 -30 -10 -35 -18 -29 4 -206 33
-262 l15 -29 -29 24 c-36 29 -93 110 -93 130 0 8 -4 19 -8 25 -12 14 -31 74
-37 119 -3 22 -8 51 -10 65 -3 24 -8 85 -21 265 -12 163 -17 195 -51 289 -26
71 -61 130 -106 176 -33 34 -81 74 -87 73 -19 -3 -28 12 -23 38 6 30 -6 44
-85 108 -30 24 -31 25 -15 60 23 56 51 142 59 186 3 22 9 49 11 60 7 29 6 165
-1 200 -3 17 -9 46 -12 65 -16 97 -108 262 -202 362 -77 81 -213 167 -269 171
-7 0 -13 3 -13 7 0 3 -11 7 -25 7 -91 5 -154 3 -178 -6 -15 -6 -27 -8 -27 -5
0 4 -7 1 -15 -6 -8 -7 -15 -10 -15 -6 0 9 -91 -49 -122 -78 -28 -27 -75 -93
-96 -136 -44 -90 -51 -274 -13 -372 6 -16 9 -28 6 -28 -2 0 3 -17 11 -37 103
-252 237 -385 482 -477 23 -9 42 -14 42 -11 0 2 18 -2 40 -10 46 -16 39 -15
85 -15 39 0 50 -14 59 -74 20 -123 46 -136 144 -69 19 13 38 23 43 23 19 0
114 -60 149 -94 57 -55 99 -150 115 -261 4 -22 8 -51 11 -65 2 -14 6 -65 9
-115 5 -85 7 -112 20 -246 3 -30 13 -80 21 -110 8 -30 17 -62 19 -72 8 -34 68
-138 100 -171 55 -59 204 -144 226 -130 5 3 9 0 9 -5 0 -16 32 -13 57 4 15 10
20 22 17 38 -50 230 1 347 221 510 50 37 96 72 103 77 6 6 12 7 12 3 0 -4 4
-3 8 2 4 6 43 35 87 65 101 69 106 73 181 145 59 58 134 173 134 208 0 9 4 17
10 17 5 0 7 7 4 15 -4 8 -3 23 1 33 4 9 7 34 5 56 -1 26 2 36 10 31 6 -4 21 0
34 8 24 16 36 51 41 120 3 42 7 50 33 53 51 8 109 16 125 17 9 1 17 6 17 11 0
5 3 7 6 3 5 -5 51 10 134 46 14 6 27 11 30 11 7 2 64 40 70 47 3 3 12 10 22
15 33 18 125 111 158 159 19 28 36 52 40 55 14 12 82 177 78 190 -1 3 4 14 10
26 13 25 25 100 26 169 2 99 -35 225 -82 278 -8 9 -12 17 -9 17 4 0 -12 17
-35 38 -24 20 -45 40 -48 43 -6 6 -100 52 -115 56 -5 1 -21 5 -35 8 -40 10
-159 7 -190 -5 -3 -1 -9 -3 -15 -4 -31 -6 -65 -19 -65 -25 0 -4 -6 -8 -13 -8
-42 0 -179 -115 -249 -208 -21 -28 -41 -54 -46 -60 -15 -19 -80 -159 -87 -190
-2 -5 -9 -35 -17 -65 -31 -125 -6 -338 58 -478 20 -43 13 -60 -42 -101 -64
-48 -70 -63 -38 -100 14 -17 30 -31 36 -31 5 0 22 -9 36 -19 22 -15 28 -28 30
-70 4 -64 -20 -158 -53 -211 -14 -22 -52 -66 -84 -97 -73 -71 -71 -70 -162
-129 -41 -27 -76 -52 -79 -55 -5 -6 -79 -56 -111 -75 -60 -35 -176 -146 -217
-208 -35 -51 -72 -137 -72 -168 0 -51 -17 -48 -29 6 -25 111 6 238 109 451 34
69 61 128 62 132 0 5 9 20 20 36 11 15 16 27 13 27 -4 0 -1 10 7 23 37 57 61
170 61 287 0 69 -5 97 -26 148 -22 56 -24 66 -12 89 12 22 10 35 -15 104 l-28
78 37 28 c66 49 143 127 187 189 39 54 104 182 104 204 0 5 5 21 11 37 7 15
14 39 16 53 6 40 6 253 -1 280 -3 14 -10 43 -15 65 -33 143 -108 263 -211 335
-19 14 -37 25 -40 25 -3 1 -16 7 -30 15 -14 8 -32 16 -40 18 -25 7 -214 11
-230 5z m205 -96 c68 -20 154 -94 199 -171 81 -139 104 -362 53 -526 -17 -56
-58 -144 -69 -148 -4 -2 -8 -10 -8 -17 0 -7 -38 -51 -84 -96 -98 -98 -122
-119 -136 -119 -5 0 -10 -3 -10 -7 0 -10 -48 -33 -52 -24 -2 3 -30 24 -62 46
-230 155 -342 420 -292 690 13 66 16 78 33 123 3 9 7 19 8 22 0 3 11 25 24 49
49 93 160 177 251 188 19 2 36 5 37 7 3 3 86 -10 108 -17z m1145 -316 c0 6 4
8 9 4 6 -3 29 -8 53 -11 24 -4 45 -10 46 -15 2 -5 12 -9 22 -9 10 0 41 -20 68
-45 52 -47 96 -123 107 -186 11 -60 7 -162 -10 -219 -8 -30 -17 -62 -19 -72
-7 -28 -63 -136 -94 -180 -36 -52 -162 -177 -162 -160 0 4 -4 2 -8 -3 -10 -14
-103 -62 -127 -67 -11 -1 -22 -6 -25 -10 -3 -4 -17 -8 -30 -10 -14 -2 -30 -7
-37 -11 -11 -7 -93 -17 -167 -20 -36 -2 -40 1 -61 43 -40 79 -54 116 -71 186
-18 79 -22 258 -5 278 6 7 8 15 5 18 -7 8 35 130 52 149 8 8 14 19 14 23 0 14
78 121 119 163 22 23 62 56 88 74 52 36 153 80 165 73 4 -3 8 -1 8 5 0 6 11 6
30 1 19 -5 30 -5 30 1z m-2317 -40 c37 -18 67 -36 67 -42 0 -5 3 -8 8 -6 17 5
106 -87 162 -168 57 -84 84 -145 108 -245 9 -36 8 -217 -1 -265 -9 -50 -27
-107 -37 -120 -5 -5 -9 -13 -9 -18 -2 -17 -33 -83 -47 -98 -15 -17 -64 -18
-149 -4 -54 9 -69 13 -140 40 -38 14 -78 29 -87 32 -10 3 -18 9 -18 14 0 5 -7
9 -15 9 -8 0 -15 4 -15 9 0 5 -9 12 -19 16 -20 6 -151 127 -151 139 0 4 -11
23 -25 43 -13 20 -22 40 -19 45 3 4 1 8 -5 8 -8 0 -59 119 -69 160 -10 47 -14
82 -16 145 -1 63 3 85 29 150 5 11 7 23 7 28 -1 4 3 7 8 7 6 0 10 6 10 13 0
24 74 89 133 117 51 25 68 28 140 26 69 -2 93 -8 150 -35z m1107 -911 c-6 -4
-21 -5 -33 -4 -12 1 -27 3 -34 3 -20 2 9 60 32 63 23 3 54 -50 35 -62z m-777
-154 c19 -15 22 -26 6 -26 -6 0 -17 -7 -25 -15 -21 -21 -33 -19 -43 8 -7 17
-4 25 13 34 26 15 27 15 49 -1z m1532 5 c13 -5 20 -18 20 -35 1 -31 4 -30 -40
-12 -39 16 -41 20 -22 41 14 16 15 16 42 6z"/>
<path d="M6079 7522 c-15 -18 -15 1 -6 -767 2 -170 7 -318 12 -327 8 -19 12
-20 93 -23 90 -3 87 -11 85 257 -1 128 -3 374 -4 546 -1 184 -6 315 -11 318
-5 4 -42 8 -82 10 -59 2 -75 0 -87 -14z m101 -309 c1 -137 2 -292 3 -345 1
-54 -2 -98 -6 -98 -5 0 -5 -5 -1 -11 10 -18 10 -119 -1 -119 -5 0 -4 -4 3 -9
8 -4 14 -12 14 -16 0 -4 -6 -12 -14 -16 -7 -5 -8 -9 -3 -9 6 0 10 -19 9 -42
-3 -60 -3 -60 -16 -56 -8 3 -12 129 -13 479 -1 260 0 477 2 482 16 30 21 -25
23 -240z"/>
<path d="M6779 6930 c-36 -10 -83 -27 -105 -38 -38 -19 -93 -62 -81 -62 3 0
-5 -12 -19 -27 -14 -15 -41 -60 -61 -100 -32 -65 -36 -82 -39 -165 -2 -51 2
-113 8 -138 51 -212 246 -343 486 -328 89 6 151 29 153 55 4 50 0 96 -10 106
-7 7 -23 7 -53 -3 -153 -46 -294 -2 -374 115 -47 67 -53 209 -14 290 35 72
110 137 173 151 44 10 108 11 113 2 3 -4 9 -6 14 -3 5 3 25 -1 44 -9 19 -8 36
-12 39 -10 2 3 9 -2 16 -10 15 -18 51 -9 52 13 6 91 -2 123 -36 145 -52 34
-206 42 -306 16z m136 -50 c0 -1 18 -3 40 -4 60 -5 98 -15 115 -33 16 -16 11
-16 -65 4 -81 22 -220 2 -279 -39 -133 -94 -184 -229 -150 -397 25 -119 125
-215 260 -247 60 -14 173 -10 204 6 28 15 41 3 16 -15 -25 -19 -116 -29 -179
-21 -122 17 -218 74 -276 164 -90 143 -69 354 48 467 68 66 120 94 205 111 10
2 21 5 23 8 4 3 38 0 38 -4z"/>
<path d="M7290 6491 c-10 -10 -13 -58 -12 -182 0 -93 3 -173 7 -179 3 -5 1
-10 -5 -10 -6 0 -8 -5 -4 -11 4 -7 6 -80 5 -163 -3 -250 -3 -277 3 -284 16
-16 115 -22 123 -8 7 10 11 59 16 171 l2 50 40 2 c202 9 247 21 314 82 31 30
72 86 75 104 1 7 5 18 10 25 4 7 9 46 11 85 7 159 -66 275 -195 311 -32 9 -62
16 -67 15 -4 -1 -12 0 -18 1 -5 2 -74 3 -151 4 -108 1 -144 -2 -154 -13z m238
-42 c42 -1 82 -6 88 -11 7 -5 16 -8 20 -6 13 3 84 -25 84 -33 0 -4 9 -10 19
-14 17 -5 57 -70 70 -115 2 -8 4 -46 3 -83 0 -54 -6 -80 -28 -123 -15 -30 -30
-52 -32 -49 -3 3 -11 -4 -19 -15 -8 -11 -21 -20 -29 -20 -8 0 -14 -4 -14 -9 0
-11 -22 -20 -69 -27 -46 -8 -66 -12 -66 -14 0 -1 -40 -3 -90 -5 -49 -1 -92 -3
-95 -4 -3 0 -5 -44 -5 -96 1 -88 -6 -127 -19 -114 -11 10 -11 529 -1 529 6 0
6 3 0 8 -13 9 -12 179 1 191 10 10 59 18 87 14 10 -1 52 -3 95 -4z"/>
<path d="M7400 6440 c-8 -5 -17 -7 -21 -4 -4 2 -9 -2 -11 -9 -4 -10 -3 -447 1
-470 1 -9 216 -3 258 7 34 8 84 36 90 52 3 7 12 14 21 14 8 0 13 3 9 6 -3 3 3
15 13 27 40 42 44 186 7 256 -40 80 -112 110 -268 115 -36 1 -70 5 -75 9 -5 3
-16 2 -24 -3z m180 -64 c14 -2 32 -4 41 -5 24 -2 87 -70 100 -108 11 -35 8
-125 -6 -158 -11 -25 -54 -69 -83 -84 -34 -18 -59 -23 -130 -25 -50 -1 -66 2
-75 15 -17 23 -14 358 2 368 11 7 95 5 151 -3z"/>
<path d="M8367 6064 c-1 -2 -16 -5 -32 -8 -17 -2 -31 -5 -32 -6 -2 -2 -6 -3
-10 -4 -52 -14 -100 -30 -117 -39 -61 -34 -154 -164 -176 -247 -7 -25 -13 -76
-15 -115 -6 -173 78 -323 221 -395 36 -19 71 -35 78 -36 6 -1 25 -5 41 -9 91
-21 259 -6 291 27 15 15 21 82 10 115 l-7 21 -71 -20 c-135 -38 -236 -13 -324
80 -53 56 -68 101 -67 202 0 60 5 85 26 125 48 94 139 155 230 155 42 0 148
-23 171 -37 33 -21 44 -8 48 58 4 75 -35 117 -121 126 -52 6 -141 10 -144 7z
m94 -68 c62 -5 146 -36 116 -43 -10 -3 -26 -1 -35 3 -57 24 -175 22 -243 -4
-15 -6 -29 -8 -33 -5 -8 8 -158 -146 -151 -157 3 -5 1 -11 -5 -15 -25 -16 -41
-165 -26 -240 23 -108 125 -218 221 -240 11 -2 38 -9 60 -14 46 -11 127 -7
168 8 35 13 47 14 47 2 0 -9 -29 -22 -55 -26 -5 -1 -12 -3 -15 -5 -12 -6 -126
-7 -135 0 -5 3 -23 7 -39 8 -16 1 -35 7 -42 13 -8 6 -14 9 -14 6 0 -7 -31 9
-75 38 -110 72 -166 218 -142 373 22 143 178 289 315 295 6 0 12 4 12 9 0 5 4
7 8 4 5 -3 33 -7 63 -10z"/>
<path d="M8597 5763 c-6 -10 -20 -98 -23 -143 -1 -19 -2 -38 -3 -42 0 -5 -19
-8 -41 -8 -31 0 -40 4 -41 18 -7 130 -8 137 -28 153 -48 39 -68 8 -66 -98 2
-60 1 -63 -22 -63 -30 0 -30 -18 0 -25 21 -6 23 -12 24 -75 2 -80 6 -90 37
-90 31 0 52 53 55 138 1 19 6 22 46 22 31 0 45 -4 43 -12 -6 -32 15 -123 30
-135 20 -15 62 -17 62 -3 0 6 -4 10 -9 10 -12 0 -9 144 3 152 17 12 38 9 30
-3 -19 -31 -1 -127 24 -130 53 -7 67 -4 89 19 l24 26 25 -27 c14 -15 33 -27
42 -27 20 0 49 30 62 63 8 22 8 21 18 -5 16 -40 51 -47 78 -13 18 22 22 24 27
11 9 -22 48 -36 69 -25 43 23 65 132 33 159 -12 10 -15 10 -16 -1 -1 -19 -8
-80 -12 -101 -4 -23 -17 -35 -18 -17 -3 57 -26 96 -51 87 -7 -3 -20 -27 -27
-54 l-14 -49 -6 35 c-4 19 -6 49 -5 66 1 25 -4 34 -24 43 -31 15 -41 6 -47
-44 -6 -45 -34 -107 -51 -112 -6 -2 -16 16 -22 39 -9 35 -8 53 4 87 24 70 29
154 11 169 -22 19 -52 1 -67 -40 -7 -18 -14 -73 -15 -123 -3 -78 -6 -93 -28
-120 -20 -24 -28 -28 -38 -18 -10 10 -9 20 9 52 39 68 22 113 -34 90 -45 -19
-74 -21 -75 -7 -1 7 -1 45 0 85 2 62 0 73 -18 82 -23 13 -38 14 -44 4z m299
-80 c-2 -27 -5 -54 -5 -62 -1 -8 -4 -11 -8 -7 -8 7 -6 68 3 99 10 33 15 17 10
-30z m-126 -105 c0 -25 -12 -58 -19 -53 -10 6 -1 65 10 65 5 0 9 -6 9 -12z"/>
<path d="M9342 5604 c-8 -14 -14 -15 -24 -7 -35 28 -95 -11 -105 -69 -11 -72
47 -112 92 -64 l21 23 17 -28 c18 -33 33 -36 65 -13 20 14 22 14 22 -4 0 -26
23 -34 47 -17 18 13 19 17 22 53 1 15 50 82 52 71 0 -2 2 -25 3 -51 2 -43 18
-78 36 -78 16 0 49 39 74 88 38 76 28 85 -14 13 -39 -67 -56 -67 -41 -1 18 79
-24 107 -72 50 -27 -31 -42 -39 -34 -17 5 14 -32 49 -47 44 -6 -2 -14 -20 -18
-41 -4 -20 -15 -51 -24 -68 -21 -41 -32 -23 -30 48 2 40 -2 59 -15 70 -16 14
-18 14 -27 -2z m-21 -77 c-13 -39 -35 -62 -50 -53 -15 10 -5 75 15 97 15 17
20 18 32 5 12 -11 12 -21 3 -49z"/>
</g>
</svg>
